Motion_mu16
version=1
nRows=6
nColumns=43
inDegrees=yes
endheader
time	pelvis_tilt	pelvis_list	pelvis_rotation	pelvis_tx	pelvis_ty	pelvis_tz	hip_flexion_r	hip_adduction_r	hip_rotation_r	knee_angle_r	ankle_angle_r	subtalar_angle_r	mtp_angle_r	hip_flexion_l	hip_adduction_l	hip_rotation_l	knee_angle_l	ankle_angle_l	subtalar_angle_l	mtp_angle_l	lumbar_extension	lumbar_bending	lumbar_rotation	neck_flexion	neck_lateral_bending	neck_rotation	arm_flex_r	arm_add_r	arm_rot_r	elbow_flex_r	pro_sup_r	wrist_flex_r	wrist_dev_r	hand_finger_flex_r	arm_flex_l	arm_add_l	arm_rot_l	elbow_flex_l	pro_sup_l	wrist_flex_l	wrist_dev_l	hand_finger_flex_l
      1.86500000	      8.23245062	     -9.88737506	    -67.76431213	     -0.01651091	      1.67883160	      0.99210979	     31.20512883	     -1.99768984	    -20.53285203	     -1.18609559	    -25.57322153	    -23.88088387	    -22.68535270	     59.43833627	      6.42454165	     11.04361241	    -21.07791322	      2.32108428	     -2.49109006	    -30.77041786	    -41.81691519	     -5.70454110	     -6.74589105	    -13.80928932	      2.02853695	     -9.64336107	   -264.26933029	   -154.68270882	   -224.10787649	    146.10654612	    136.79728383	    -18.69458063	    -24.99999983	     89.85435525	   -215.94449096	    214.08328257	   -211.93195574	    160.69635982	    157.51941554	    -15.55409100	      1.85995919	     90.00021046
      1.86750000	      8.33003488	     -9.52553580	    -68.05345716	     -0.01582666	      1.67926562	      0.99104255	     31.24214090	     -2.13659696	    -20.23759949	     -0.79966689	    -25.78665894	    -25.15183650	    -22.55595166	     59.32626336	      6.48983430	     10.30299328	    -20.71385560	      2.48611187	     -1.34567957	    -30.73517204	    -41.98703112	     -5.64405555	     -6.83258573	    -13.39167672	      1.99922064	     -9.29345402	   -264.55686388	   -154.73189327	   -224.07984071	    146.29107344	    137.46019511	    -20.65239585	    -24.99999983	     90.00021046	   -217.01987335	    214.02869309	   -213.07306359	    160.92858141	    156.32116797	    -15.50601463	      1.27268514	     90.00021046
      1.87000000	      8.29767520	     -9.06857171	    -68.40789245	     -0.01499125	      1.67966487	      0.98998444	     31.38323445	     -2.17599238	    -20.49369006	     -0.35956713	    -25.49001551	    -25.55598792	    -22.50436614	     59.26569458	      6.55482780	      9.88229706	    -20.23394753	      2.49066881	     -1.32509870	    -30.72882741	    -41.92035974	     -5.50917442	     -6.70924418	    -13.52671187	      1.79586164	     -9.30685743	   -264.81111831	   -154.91480175	   -224.23186453	    146.51963045	    137.59364780	    -20.81059825	    -24.99999983	     90.00021046	   -217.83980766	    214.00198867	   -213.47860858	    160.91458578	    156.21470825	    -15.51850404	      1.25834335	     90.00021046
      1.87250000	      8.31956417	     -8.65085400	    -68.70580405	     -0.01422255	      1.68009968	      0.98886198	     31.51199938	     -2.27468083	    -20.67664158	     -0.04886719	    -25.19220024	    -26.10280749	    -22.44037692	     59.16468225	      6.65973071	      9.33962000	    -19.76443039	      2.39145755	     -1.06524453	    -30.73618093	    -41.95039352	     -5.39201467	     -6.70646117	    -13.50034264	      1.53850743	     -9.28554082	   -265.04521253	   -155.00607706	   -224.34033051	    146.75824385	    137.97865130	    -21.11266386	    -24.99999983	     90.00021046	   -218.81381216	    213.97091842	   -214.15192449	    160.99151188	    155.92562150	    -15.58675532	      1.26813369	     90.00021046
      1.87500000	      8.37323987	     -8.25548718	    -68.99642760	     -0.01334235	      1.68049757	      0.98775806	     31.65092616	     -2.42448624	    -20.72347285	      0.17383996	    -24.94044387	    -26.75531079	    -22.36072512	     59.06382475	      6.78747088	      8.77131060	    -19.35544469	      2.34883203	     -0.58294284	    -30.74045684	    -42.00588313	     -5.29901579	     -6.74414795	    -13.35767787	      1.33652504	     -9.19233205	   -265.28613750	   -155.04330542	   -224.47937912	    146.98447018	    138.49536215	    -21.57943248	    -24.99999983	     90.00021046	   -219.77343469	    213.94216186	   -214.87381924	    161.12898292	    155.36449403	    -15.65957414	      1.27809495	     90.00021046
      1.87750000	      8.39124649	     -7.84817803	    -69.32888280	     -0.01234949	      1.68094302	      0.98655291	     31.78887680	     -2.55188924	    -20.78318138	      0.42337552	    -24.81580766	    -26.90647396	    -22.34037910	     59.04312584	      6.95597517	      8.66067839	    -19.13548794	      2.39301443	     -0.51107876	    -30.73567248	    -42.00226181	     -5.16927532	     -6.57905007	    -13.35877552	      1.36081754	     -9.18359260	   -265.57165417	   -155.31293019	   -224.73256208	    147.25883925	    138.54455724	    -21.68705249	    -24.99999983	     90.00021046	   -220.46796419	    214.02517403	   -215.00568016	    161.09457503	    155.27908640	    -15.64728274	      1.29106007	     90.00021046
